<svg xmlns="http://www.w3.org/2000/svg" xmlns:xlink="http://www.w3.org/1999/xlink" width="285.435" height="45.874" viewBox="0 0 285.435 45.874">
  <defs>
    <clipPath id="clip-path">
      <path id="path28" d="M0-71.54H103.48v35.1H0Z" transform="translate(0 71.54)"/>
    </clipPath>
  </defs>
  <g id="Grupo_46" data-name="Grupo 46" transform="translate(630.005 -1737.23)">
    <text id="Games" transform="translate(-487 1772)" fill="#fff" font-size="24" font-family="GillSans-Bold, Gill Sans" font-weight="700"><tspan x="0" y="0">GAMES</tspan></text>
    <path id="Icon_simple-nintendogamecube" data-name="Icon simple-nintendogamecube" d="M10.17,22.544l7.01,4.046v-8.1l-7.013-4.044v8.1ZM7.153,24.285l10.029,5.787v5.694L2.22,27.133V9.861l4.933,2.846V24.286ZM17.9,9.159l-7.009,4.05L17.9,17.257l7.012-4.049L17.9,9.16Zm0-3.477,8.435,4.881,4.933-2.846L17.9,0,2.955,8.628,7.883,11.47Zm10.742,18.6V18.4L25.624,20.14v2.405l-7.01,4.046V18.5l14.96-8.633V27.134L18.613,35.77V30.082l10.026-5.794Z" transform="translate(-524.574 1737.23)" fill="#f37020"/>
    <g id="layer1" transform="translate(-623.611 1724.793)">
      <g id="g18" transform="translate(-6.393 23.207)">
        <g id="g24">
          <g id="g26" transform="translate(0 0)" clip-path="url(#clip-path)">
            <g id="g32" transform="translate(70.61 7.924)">
              <path id="path34" d="M0-16.716v-12.96A3.149,3.149,0,0,1,3.147-32.82h9.14a1.077,1.077,0,0,1,1.076,1.074,1.077,1.077,0,0,1-1.076,1.075H4.754a2.318,2.318,0,0,0-2.309,2.283v11.672Z" transform="translate(0 32.82)" fill="#fff"/>
            </g>
            <g id="g36" transform="translate(20.048 6.703)">
              <path id="path38" d="M-4.174-17.983a3.919,3.919,0,0,1-4.021-3.9V-32.8a1.287,1.287,0,0,1,1.286-1.286A1.144,1.144,0,0,1-5.817-32.8v11.064c0,1.071.679,1.662,1.912,1.662h6.6c1.232,0,1.91-.59,1.91-1.662V-35.308h2.38v17.325Z" transform="translate(8.195 35.308)" fill="#f37020"/>
            </g>
            <g id="g40" transform="translate(36.871 7.924)">
              <path id="path42" d="M0-16.716v-16.1H11.116c2.351,0,3.992,1.893,3.992,4.6a4.56,4.56,0,0,1-4.779,4.648H6.357A1.123,1.123,0,0,1,5.117-24.66a1.123,1.123,0,0,1,1.241-1.093h3.866a2.5,2.5,0,0,0,2.338-2.462,2.442,2.442,0,0,0-2.338-2.419H4.467c-1.278,0-1.982.612-1.982,1.723v12.195Z" transform="translate(0 32.82)" fill="#f37020"/>
            </g>
            <g id="g44" transform="translate(53.578 7.924)">
              <path id="path46" d="M-5.036-16.716a4.858,4.858,0,0,1-4.851-4.853v-6.4A4.857,4.857,0,0,1-5.036-32.82H1.559c2.105,0,3.885,2.039,3.885,4.452a4.7,4.7,0,0,1-4.592,4.56H-3.741a1.079,1.079,0,0,1-1.1-1.079,1.074,1.074,0,0,1,1.1-1.069H.951a2.362,2.362,0,0,0,2.064-2.371A2.39,2.39,0,0,0,.951-30.74H-4.521a2.928,2.928,0,0,0-2.938,2.91v6a2.941,2.941,0,0,0,2.938,2.938H4.263A1.088,1.088,0,0,1,5.351-17.8a1.089,1.089,0,0,1-1.088,1.088Z" transform="translate(9.887 32.82)" fill="#fff"/>
            </g>
            <g id="g48" transform="translate(84.926 7.924)">
              <path id="path50" d="M-13.277-16.716V-28.3a2.267,2.267,0,0,0-2.033-2.371l-.165-.022s-4.549.035-5.019.034a3.136,3.136,0,0,0-3.131,3.132V-22a3.136,3.136,0,0,0,3.131,3.133h3.419a1.087,1.087,0,0,1,1.167,1.075,1.085,1.085,0,0,1-1.167,1.071h-3.8a5.2,5.2,0,0,1-5.192-5.194v-5.7a5.2,5.2,0,0,1,5.192-5.193l6.385-.012a3.635,3.635,0,0,1,3.632,3.629v12.476Z" transform="translate(26.068 32.821)" fill="#fff"/>
            </g>
            <g id="g52" transform="translate(32.898 2.024)">
              <path id="path54" d="M0-2.607,2.327-5.118v3.045H0Z" transform="translate(0 5.118)" fill="#fff"/>
            </g>
            <g id="g56" transform="translate(3.137 7.924)">
              <path id="path58" d="M-15.913-12.095c0-.049-.006-.1-.008-.146,0-.01,0-.02,0-.03l0,0A4.7,4.7,0,0,0-20.5-16.655h-1.528l-.026,0h-4.692a2.362,2.362,0,0,1-2.064-2.372,2.718,2.718,0,0,1,1.374-2.316,5.181,5.181,0,0,1,1.564-.23h8.784a1.088,1.088,0,0,0,1.088-1.085,1.089,1.089,0,0,0-1.088-1.088h-9.3a4.81,4.81,0,0,0-1.7.31,4.407,4.407,0,0,0-3.156,4.367,4.7,4.7,0,0,0,4.591,4.561h1.528l.027,0H-20.4a2.362,2.362,0,0,1,2.064,2.371c0,1.07-.938,2.538-2.144,2.538-.318.009-.48.008-.794.008h-8.784A1.087,1.087,0,0,0-31.151-8.5a1.089,1.089,0,0,0,1.088,1.088h9.3a4.807,4.807,0,0,0,1.685-.308,4.4,4.4,0,0,0,3.166-4.369" transform="translate(31.243 23.747)" fill="#fff"/>
            </g>
          </g>
        </g>
      </g>
    </g>
    <g id="Grupo_45" data-name="Grupo 45" transform="translate(534.438 2521.25)">
      <path id="Icon_awesome-gamepad" data-name="Icon awesome-gamepad" d="M33.75,6.75H11.25a11.25,11.25,0,1,0,8.03,19.125h6.434A11.249,11.249,0,1,0,33.75,6.75ZM18,19.406a.846.846,0,0,1-.844.844H13.5v3.656a.846.846,0,0,1-.844.844H9.844A.846.846,0,0,1,9,23.906V20.25H5.344a.846.846,0,0,1-.844-.844V16.594a.846.846,0,0,1,.844-.844H9V12.094a.846.846,0,0,1,.844-.844h2.813a.846.846,0,0,1,.844.844V15.75h3.656a.846.846,0,0,1,.844.844Zm12.938,4.781a3.375,3.375,0,1,1,3.375-3.375A3.376,3.376,0,0,1,30.938,24.188Zm5.625-5.625a3.375,3.375,0,1,1,3.375-3.375A3.376,3.376,0,0,1,36.563,18.563Z" transform="translate(-924 -776)" fill="#fff"/>
      <g id="Grupo_45-2" data-name="Grupo 45" transform="translate(-24 -0.006)">
        <rect id="Retângulo_32" data-name="Retângulo 32" width="14" height="14" transform="translate(-873 -764.994)" fill="#fff"/>
        <rect id="Retângulo_35" data-name="Retângulo 35" width="6" height="6" transform="translate(-873 -756.994)" fill="#f37020"/>
        <rect id="Retângulo_34" data-name="Retângulo 34" width="6" height="6" rx="3" transform="translate(-865 -756.994)" fill="#f37020"/>
        <path id="Polígono_1" data-name="Polígono 1" d="M3,0,6,6H0Z" transform="translate(-869 -764.994)" fill="#f37020"/>
      </g>
    </g>
  </g>
</svg>
